<?xml version="1.0" encoding="utf-8"?>

<!DOCTYPE svg PUBLIC "-//W3C//DTD SVG 1.1//EN" "http://www.w3.org/Graphics/SVG/1.1/DTD/svg11.dtd">
<svg version="1.1" id="Layer_1" xmlns="http://www.w3.org/2000/svg" xmlns:xlink="http://www.w3.org/1999/xlink" x="0px" y="0px"
	 viewBox="0 0 1299.616 1632.533" enable-background="new 0 0 1299.616 1632.533" xml:space="preserve">
<g>
	<path fill="#C0A58D" stroke="#C0A58D" stroke-width="0.5" d="M250.869,49.872c43.997-45.853,125.184-46.751,170.283,9.571
		c45.818-38.398,108.993-26.879,139.581,15.682c28.641,38.793,24.025,96.582-18.53,130.457
		c6.574,40.985,13.877,81.871,19.756,122.939c-91.965-2.145-179.009,47.838-224.449,128.768
		c-34.345-36.067-67.712-73.111-101.825-109.426c-87.859,32.59-175.191-47.841-149.964-137.197
		c15.535-55.446,72.148-92.32,132.179-80.48C217.534,100.429,229.805,70.837,250.869,49.872 M255.108,102.118
		c-8.131,21.693-3.378,45.175-4.719,67.712c-14.705-2.732-29.294-6.144-44.032-8.661c-48.572-7.399-94.876,32.696-92.303,83.51
		c1.071,49.041,49.22,88.569,100.898,75.727c10.317-2.517,19.855-7.352,29.973-10.466c29.311,31.91,58.836,63.622,88.279,95.417
		c47.279-58.733,111.021-96.413,190.999-107.422c-5.216-35.388-11.41-70.61-17.09-105.915c5.233-4.819,11.062-8.893,16.593-13.347
		c12.585-10.201,20.766-25.568,22.405-41.664c5.441-46.737-43.807-82.965-87.567-63.225c-16.129,7.352-27.572,21.478-41.217,32.341
		c-11.476-11.84-19.607-26.661-32.126-37.541C342.489,31.089,273.772,48.666,255.108,102.118z"/>
	<path fill="#FFFFFF" stroke="#FFFFFF" stroke-width="0.5" d="M255.108,102.118c18.632-53.358,87.293-71.106,130.092-33.533
		c12.519,10.88,20.65,25.701,32.126,37.541c13.645-10.863,25.088-24.988,41.217-32.341c43.828-19.771,93.001,16.548,87.567,63.225
		c-1.639,16.096-9.82,31.463-22.405,41.664c-5.531,4.455-11.36,8.528-16.593,13.347c5.68,35.305,11.873,70.527,17.09,105.915
		c-76.186,10.487-141.344,45.738-190.999,107.422c-29.443-31.795-58.969-63.506-88.279-95.417
		c-10.118,3.113-19.656,7.949-29.973,10.466c-51.788,12.869-99.829-26.794-100.898-75.727c-2.57-50.758,43.668-90.919,92.303-83.51
		c14.738,2.517,29.327,5.928,44.032,8.661C251.73,147.292,246.977,123.811,255.108,102.118z"/>
	<path fill="#B19177" stroke="#B19177" stroke-width="0.5" d="M487.556,361.259c96.592-30.781,204.811,4.941,262.801,93.479
		c25.508-32.921,72.132-18.516,79.288,15.748c6.186,25.305-13.463,56.623-49.149,53.272c3.925,16.493,6.442,33.335,6.789,50.292
		c29.942,25.753,67.035,13.423,99.143-9.555c10.548-7.435,19.789-16.477,29.095-25.353c-21.444,36.899-57.76,87.38-100.451,87.683
		c-11.062,0.381-21.461-3.891-31.165-8.71c-8.975,55.309-39.876,106.445-83.808,141.055
		c-94.318,74.947-232.25,63.127-312.613-25.618C274.243,610.186,329.587,410.915,487.556,361.259 M587.046,422.48
		c-24.202,6.216-34.986,35.248-21.726,55.475c7.915,12.983,24.326,19.789,39.147,16.51c19.656-3.676,33.765-25.104,28.582-44.578
		C628.842,429.998,606.603,416.569,587.046,422.48 M721.345,546.81c-9.108,5.829-13.678,16.046-20.981,23.697
		c-35.912,41.327-105.315,71.388-226.817,38.882c-23.73-6.061-46.533-15.069-69.319-23.912
		c18.024,14.851,92.48,65.796,177.304,68.259c103.722,3.241,174.748-65.119,176.857-96.062c-0.497-7.7-6.276-14.953-13.562-17.437
		C736.48,538.017,728.134,542.306,721.345,546.81z"/>
	<path fill="#FFFFFF" stroke="#FFFFFF" stroke-width="0.5" d="M587.046,422.48c19.557-5.912,41.797,7.518,46.003,27.406
		c5.183,19.474-8.926,40.902-28.582,44.578c-25.166,5.568-50.487-16.839-43.734-45.456
		C563.995,436.341,574.345,425.743,587.046,422.48z"/>
	<path fill="#E7D7C9" stroke="#E7D7C9" stroke-width="0.5" d="M1006.286,438.543c-2.136,8.495-4.62,16.891-7.203,25.253
		c-12.32-3.229-19.739,14.109-11.426,22.273c10.317,10.698,24.839,17.189,32.639,30.337c8.346,14.688,9.522,33.384,2.765,48.917
		c-5.415,12.718-14.937,23.001-24.26,32.97c-6.475-5.879-12.767-11.956-19.242-17.835c8.18-9.439,18.133-18.563,20.981-31.232
		c4.384-28.006-21.836-28.984-36.034-49.977C945.591,472.229,968.2,428.645,1006.286,438.543z"/>
	<path fill="#E7D7C9" stroke="#E7D7C9" stroke-width="0.5" d="M1070.008,438.775c-2.053,8.313-4.736,16.46-6.889,24.757
		c-3.163,0.331-6.707-0.215-9.456,1.706c-7.054,4.918-7.75,16.609-1.043,22.157c10.78,10.134,25.005,17.156,32.341,30.586
		c6.889,13.546,8.363,30.056,2.997,44.38c-5.183,13.976-15.218,25.502-25.634,35.885c-6.16-6.127-12.734-11.824-19.06-17.769
		c7.684-8.876,16.841-17.305,20.435-28.847c2.451-9.257,0.795-20.567-6.922-26.943c-10.25-8.992-23.018-15.748-30.089-27.853
		C1010.438,469.323,1033.675,428.936,1070.008,438.775z"/>
	<path fill="#FFFFFF" stroke="#FFFFFF" stroke-width="0.5" d="M721.345,546.81c6.789-4.504,15.135-8.793,23.482-6.574
		c7.286,2.484,13.065,9.737,13.562,17.437c-2.806,41.174-133.354,159.326-317.067,52.511c-12.701-7.7-25.618-15.251-37.094-24.707
		c22.786,8.843,45.589,17.851,69.319,23.912c121.54,32.515,190.925,2.422,226.817-38.882
		C707.666,562.856,712.237,552.639,721.345,546.81z"/>
	<path fill="#C0A58D" stroke="#C0A58D" stroke-width="0.5" d="M914.165,609.488c80.579,0.033,161.158-0.033,241.738,0.033
		c-0.05,10.714-1.805,21.345-4.604,31.662c-77.449,0.381-154.899,0-232.348,0.199C915.672,631.082,914.181,620.285,914.165,609.488z
		"/>
	<path fill="#B19177" stroke="#B19177" stroke-width="0.5" d="M87.26,626.098c27.953-4.835,56.485,3.709,80.778,17.305
		c12.618,7.684,26.214,13.496,39.362,20.186c9.472,5.15,20.252,8.313,31.082,8.18c23.853-2.689,46.696-25.54,61.486-12.999
		c5.001,4.074,6.193,10.764,7.386,16.742c-26.401,11.46-37.966,51.73-44.728,64.997c-20.522,24.023-45.754,25.3-56.816,15.698
		c-14.688-11.807-29.542-23.382-44.247-35.156c-10.482-8.594-22.72-14.655-33.517-22.819c-6.541-5.216-14.655-7.667-22.206-10.946
		c-11.327-4.322-22.62-9.307-34.659-11.211c-14.534-1.051-52.746-2.009-57.743-15.964c-3.29-10.031,13.943-21.654,23.747-25.85
		c10.416-4.09,21.809-3.18,32.738-2.732C75.668,629.625,81.215,626.992,87.26,626.098z"/>
	<path fill="#C0A58D" stroke="#C0A58D" stroke-width="0.5" d="M923.869,651.003c74.088-0.099,148.176-0.066,222.263-0.017
		c-10.3,22.571-28.284,41.101-49.695,53.421c42.801,0.863,134.046,4.112,175.532,14.076c5.299,1.523,11.724,2.583,14.473,8.048
		c-25.263,12.133-253.53,36.636-455.804,12.204c-37.162-4.871-41.488-7.61-47.51-12.353c4.587-6.856,13.629-7.336,20.915-9.307
		c48.123-9.01,120.491-11.502,168.776-12.751C952.004,691.541,933.689,673.69,923.869,651.003z"/>
	<path fill="#B19177" stroke="#B19177" stroke-width="0.5" d="M909.396,751.388c18.597,0.265,37.259-0.017,55.823,0.629
		c9.571,4.438,18.1,10.78,27.572,15.417c6.872,3.56,14.804,1.209,21.826-0.613c11.211-3.726,21.114-10.664,32.242-14.556
		c22.621-0.133,45.274,0.315,67.911,0.364c14.688,0.281,30.023-0.944,43.966,4.67c10.565,4.372,16.245,16.113,15.632,27.191
		c-15.325,8.473-47.405,5.471-66.255,11.708c-23.153,13.303-33.368,22.183-75.247,55.508c-18.414,16.338-53.43-2.875-61.072-21.859
		c-13.463-27.572-36.415-50.176-63.738-64.003C907.823,760.976,908.17,756.107,909.396,751.388z"/>
	<path fill="#C0A58D" stroke="#C0A58D" stroke-width="0.5" d="M186.137,759.618c21.587,18.744,43.213,19.603,70.643,9.224
		c-0.464,28.864-1.374,57.76-1.408,86.64c29.741,5.349,59.532,10.449,89.339,15.417c2.583,1.027,4.206-1.225,5.647-2.915
		c15.682-18.861,36.729-33.185,60.045-40.803c33.699-11.211,69.302-15.45,104.673-16.477c-0.875,77.56,9.605,158.831-33.881,194.758
		c-34.691,29.206-90.699,4.048-128.089-21.925c-0.083,98.149-0.166,196.298,0.033,294.447c79.533,0.133,538.16,0.275,551.85-0.033
		c0.814-159.296-47.745-344.238-174.539-440.453c49.475,6.69,89.235,35.766,120.173,75.462c1.755,2.881,5.481,2.732,8.396,3.544
		c26.479,5.1,52.891,10.631,79.47,15.285c9.754-27.108,19.689-54.133,29.46-81.208c22.724,19.649,43.011,26.201,69.269,16.229
		c-2.204,34.996-10.778,169.836-18.944,204.048c-32.473-1.954-64.947-3.593-97.437-5.1c21.445,83.394,27.886,169.885,28.035,255.747
		c-31.828,0.215-63.672-0.05-95.516,0.116c-2.55-0.497-3.428,2.02-4.372,3.792c-30.818,58.985-62.115,117.722-92.817,176.758
		c89.193-4.133,174.983,24.823,173.744,114.03c-198.136,0.099-396.289,0.099-594.441,0c13.216-53.769,49.81-105.962,105.386-117.623
		c29.128-6.508,59.399-1.573,87.485,7.253c-25.932-76.504-63.522-146.753-90.25-183.746c-2.655-0.898,5.355-0.42-129-0.53
		c1.027-101.825,1.888-203.667,3.146-305.492c-60.244-20.186-120.604-40.124-181.262-59.035
		C132.995,929.536,176.545,790.588,186.137,759.618 M470.946,1345.829c25.966,52.776,52.097,105.452,78.277,158.111
		c2.02,5.829,9.058,5.067,13.976,6.127c-7.544-19.282-59.747-148.136-64.285-157.615
		C490.255,1348.545,480.22,1347.998,470.946,1345.829 M780.959,1351.608c-16.957,46.566-33.732,93.181-50.706,139.73
		c-2.252,5.647-0.96,11.757,0.431,17.421c5.096-8.261,3.788-8.034,72.564-157.201
		C795.813,1351.443,788.378,1351.459,780.959,1351.608 M441.007,1528.432c-25.071,11.989-46.4,32.457-58.787,57.396
		c23.962,0.447,47.924,0,71.885,0.232c-5.448-6.972-12.254-15.053-9.787-24.574c7.295-22.186,62.691-25.004,85.845-25.618
		c-0.248-4.604-0.795-9.191-1.788-13.678C499.578,1515.3,468.148,1515.549,441.007,1528.432 M752.708,1522.073
		c-0.182,6.044-0.132,12.122,0.282,18.199c18.18,4.545,65.692,16.739,74.253,33.633c2.335,4.057-0.513,8.346-1.904,12.188
		c24.839-0.331,49.679,0.232,74.502-0.281c-2.086-8.876-6.972-16.792-13.132-23.399
		C854.611,1527.466,795.018,1523.727,752.708,1522.073z"/>
	<path fill="#FFFFFF" stroke="#FFFFFF" stroke-width="0.5" d="M515.078,810.704c20.252-0.513,40.521,0.182,60.741,1.523
		c6.591,46.168,15.268,92.038,22.604,138.107c15.461,0.539,145.122,0.778,162.086,0.331c-40.07-75.022-73.458-114.54-79.023-124.131
		c16.444,2.997,32.954,6.243,48.967,10.963c126.409,95.923,175.36,279.804,174.539,440.453c-14.102,0.318-476.027,0.16-551.85,0.033
		c-0.199-98.149-0.116-196.298-0.033-294.447c37.41,25.987,93.405,51.124,128.089,21.925
		C524.516,969.674,514.202,888.312,515.078,810.704z"/>
	<path fill="#C0A58D" stroke="#C0A58D" stroke-width="0.5" d="M575.818,812.228c35.454,2.517,70.875,7.088,105.667,14.307
		c5.511,9.5,39.22,49.608,79.023,124.131c-16.922,0.445-146.679,0.206-162.086-0.331
		C591.086,904.266,582.409,858.396,575.818,812.228z"/>
	<path fill="#FFFFFF" stroke="#FFFFFF" stroke-width="0.5" d="M470.946,1345.829c9.273,2.169,19.309,2.716,27.969,6.624
		c4.434,9.261,56.464,137.626,64.285,157.615c-4.918-1.06-11.956-0.298-13.976-6.127
		C523.043,1451.281,496.912,1398.604,470.946,1345.829z"/>
	<path fill="#FFFFFF" stroke="#FFFFFF" stroke-width="0.5" d="M780.959,1351.608c7.419-0.149,14.854-0.166,22.289-0.05
		c-68.784,149.184-67.468,148.939-72.564,157.201c-1.391-5.663-2.683-11.774-0.431-17.421
		C747.227,1444.789,764.002,1398.174,780.959,1351.608z"/>
	<path fill="#FFFFFF" stroke="#FFFFFF" stroke-width="0.5" d="M528.375,1522.189c0.994,4.488,1.54,9.075,1.788,13.678
		c-23.16,0.614-78.551,3.433-85.845,25.618c-2.467,9.522,4.339,17.603,9.787,24.574c-23.962-0.232-47.924,0.215-71.885-0.232
		C399.996,1550.038,447.523,1502.848,528.375,1522.189z"/>
	<path fill="#FFFFFF" stroke="#FFFFFF" stroke-width="0.5" d="M752.708,1522.073c32.619,1.275,99.737,3.036,134.001,40.339
		c6.16,6.607,11.045,14.523,13.132,23.399c-24.823,0.513-49.662-0.05-74.502,0.281c2.184-6.031,8.93-13.051-13.115-25.27
		c-18.563-9.836-38.965-15.483-59.234-20.55C752.576,1534.195,752.526,1528.117,752.708,1522.073z"/>
</g>
</svg>
